<?xml version="1.0" standalone="no"?>
<!DOCTYPE svg PUBLIC "-//W3C//DTD SVG 20010904//EN"
 "http://www.w3.org/TR/2001/REC-SVG-20010904/DTD/svg10.dtd">
<svg version="1.0" xmlns="http://www.w3.org/2000/svg"
 width="1200.000000pt" height="1200.000000pt" viewBox="0 0 1200.000000 1200.000000"
 preserveAspectRatio="xMidYMid meet">
<metadata>
Created by potrace 1.11, written by Peter Selinger 2001-2013
</metadata>
<g transform="translate(0.000000,1200.000000) scale(0.100000,-0.100000)"
fill="#000000" stroke="none">
<path d="M4382 11698 c-11 -29 -441 -1225 -957 -2658 -516 -1433 -941 -2609
-945 -2613 -6 -6 -639 -176 -657 -177 -2 0 -3 -76 -3 -170 l0 -170 940 0 940
0 0 170 0 169 -37 10 c-21 5 -164 42 -318 81 -154 39 -287 74 -296 78 -14 6
19 109 226 712 l243 705 1074 3 1074 2 233 -706 c128 -388 229 -709 225 -713
-5 -5 -135 -40 -289 -80 -154 -39 -297 -76 -317 -82 l-38 -10 0 -174 c0 -126
3 -176 12 -181 7 -5 159 -44 338 -88 l325 -81 3 -2367 2 -2367 -37 -10 c-21
-6 -157 -40 -303 -76 -146 -36 -282 -70 -302 -76 l-38 -10 0 -169 0 -170 1363
0 c1603 0 1731 5 2084 75 325 66 568 190 778 400 430 429 581 1043 399 1620
-119 378 -441 712 -854 889 -106 45 -295 109 -364 122 -39 7 -58 30 -36 44 7
4 35 11 62 14 78 11 221 62 331 118 504 259 762 826 628 1384 -53 220 -172
439 -329 606 -162 172 -348 287 -604 372 -252 84 -415 105 -913 116 l-350 7
-313 85 c-172 47 -316 89 -320 92 -3 4 -431 1202 -952 2664 l-945 2657 -372 3
-371 2 -20 -52z m319 -830 c348 -1096 808 -2553 805 -2555 -1 -2 -412 -2 -913
-1 l-911 3 466 1358 c380 1106 469 1357 484 1357 13 0 28 -34 69 -162z m3508
-5108 c157 -17 266 -46 387 -106 170 -83 274 -195 373 -405 85 -179 117 -366
100 -584 -16 -197 -72 -360 -184 -531 -131 -202 -302 -315 -574 -382 l-106
-25 -622 -4 -623 -4 0 1025 0 1026 578 0 c317 0 619 -5 671 -10z m62 -2520
c348 -35 534 -106 695 -265 215 -212 324 -499 324 -850 0 -235 -38 -415 -125
-590 -116 -236 -292 -400 -513 -479 -101 -36 -292 -73 -445 -85 -70 -6 -380
-11 -688 -11 l-559 0 0 1145 0 1145 604 0 c344 0 648 -4 707 -10z"/>
</g>
</svg>
